<svg width="462" height="203" viewBox="0 0 462 203" fill="none" xmlns="http://www.w3.org/2000/svg">
<path d="M177.53 163.383L184.792 0C190.359 46.7154 202.365 143.777 205.85 158.3C209.336 172.823 224.246 173.549 231.265 172.097V202.595C180.676 202.595 174.868 178.632 177.53 163.383Z" fill="#F1F3F6"/>
<path d="M284.47 163.383L277.208 0C271.641 46.7154 259.635 143.777 256.15 158.3C252.664 172.823 237.754 173.549 230.735 172.097V202.595C281.324 202.595 287.132 178.632 284.47 163.383Z" fill="#F1F3F6"/>
<path d="M232.916 77.6977L242.356 60.9963L230.737 55.9133L219.119 60.9963L228.559 77.6977H232.916Z" fill="#F1F3F6"/>
<path d="M219.119 173.549L230.737 56.6393L242.356 173.549H219.119Z" fill="#F1F3F6"/>
<path d="M219.119 57.3655L230.737 36.3073L242.356 57.3655L230.737 49.3779L219.119 57.3655Z" fill="#F1F3F6"/>
<path d="M104.868 202.913C102.453 202.913 100.359 202.027 98.5875 200.256C96.8159 198.484 95.9302 196.229 95.9302 193.492V157.738H9.44565C6.86883 157.738 4.69464 156.933 2.92308 155.322C1.31257 153.551 0.34626 151.538 0.0241577 149.283C-0.136894 147.028 0.507311 144.935 1.95677 143.002L97.6212 17.8652C98.4264 16.7379 99.3928 15.8521 100.52 15.2079C101.809 14.4026 103.419 14 105.352 14C107.928 14 110.022 14.9663 111.633 16.8989C113.404 18.6705 114.29 20.9252 114.29 23.6631V140.828H133.375C135.951 140.828 138.126 141.472 139.897 142.76C141.669 144.049 142.554 146.304 142.554 149.525C142.554 151.618 141.669 153.551 139.897 155.322C138.126 156.933 135.951 157.738 133.375 157.738H114.29V193.492C114.29 196.229 113.404 198.484 111.633 200.256C109.861 202.027 107.606 202.913 104.868 202.913ZM19.5919 148.075L16.2098 140.828H95.9302V37.1914L100.762 42.2645L19.5919 148.075Z" fill="white"/>
<path d="M423.448 202.913C421.032 202.913 418.938 202.027 417.167 200.256C415.395 198.484 414.51 196.229 414.51 193.492V157.738H328.025C325.448 157.738 323.274 156.933 321.502 155.322C319.892 153.551 318.926 151.538 318.604 149.283C318.443 147.028 319.087 144.935 320.536 143.002L416.201 17.8652C417.006 16.7379 417.972 15.8521 419.1 15.2079C420.388 14.4026 421.998 14 423.931 14C426.508 14 428.602 14.9663 430.212 16.8989C431.984 18.6705 432.869 20.9252 432.869 23.6631V140.828H451.954C454.531 140.828 456.705 141.472 458.477 142.76C460.248 144.049 461.134 146.304 461.134 149.525C461.134 151.618 460.248 153.551 458.477 155.322C456.705 156.933 454.531 157.738 451.954 157.738H432.869V193.492C432.869 196.229 431.984 198.484 430.212 200.256C428.441 202.027 426.186 202.913 423.448 202.913ZM338.171 148.075L334.789 140.828H414.51V37.1914L419.341 42.2645L338.171 148.075Z" fill="white"/>
</svg>
