<svg width="50" height="50" viewBox="0 0 50 50" fill="none" xmlns="http://www.w3.org/2000/svg">
<path d="M35.3516 10.6592V6.88482C35.3516 6.55767 34.9757 6.37701 34.7218 6.57721L12.71 23.7696C12.523 23.915 12.3717 24.1013 12.2676 24.3141C12.1635 24.5269 12.1094 24.7607 12.1094 24.9976C12.1094 25.2345 12.1635 25.4683 12.2676 25.6811C12.3717 25.894 12.523 26.0802 12.71 26.2256L34.7218 43.418C34.9805 43.6182 35.3516 43.4376 35.3516 43.1104V39.336C35.3516 39.0967 35.2393 38.8672 35.0538 38.7208L17.4757 25.0001L35.0538 11.2745C35.2393 11.128 35.3516 10.8985 35.3516 10.6592Z" fill="black"/>
</svg>
