<svg width="50" height="50" viewBox="0 0 50 50" fill="none" xmlns="http://www.w3.org/2000/svg">
<path d="M37.3877 23.7694L15.376 6.57704C15.3185 6.53176 15.2493 6.50362 15.1765 6.49585C15.1038 6.48808 15.0303 6.501 14.9645 6.53313C14.8987 6.56525 14.8433 6.61528 14.8047 6.67746C14.7661 6.73964 14.7458 6.81146 14.7461 6.88466V10.6591C14.7461 10.8983 14.8584 11.1278 15.044 11.2743L32.6221 24.9999L15.044 38.7255C14.8535 38.872 14.7461 39.1015 14.7461 39.3407V43.1151C14.7461 43.4423 15.1221 43.6229 15.376 43.4227L37.3877 26.2304C37.5748 26.0844 37.7261 25.8978 37.8302 25.6845C37.9343 25.4713 37.9884 25.2372 37.9884 24.9999C37.9884 24.7626 37.9343 24.5285 37.8302 24.3153C37.7261 24.102 37.5748 23.9154 37.3877 23.7694Z" fill="black"/>
</svg>
