<svg width="122" height="110" viewBox="0 0 122 110" fill="none" xmlns="http://www.w3.org/2000/svg">
<g clip-path="url(#clip0)">
<path d="M20.3798 27.78C23.0512 27.78 25.6626 26.9841 27.8838 25.493C30.1049 24.0019 31.8361 21.8826 32.8584 19.403C33.8807 16.9234 34.1482 14.1949 33.627 11.5626C33.1059 8.93028 31.8195 6.51233 29.9305 4.61454C28.0416 2.71674 25.6349 1.42432 23.0148 0.900719C20.3948 0.377117 17.679 0.645848 15.211 1.67293C12.7429 2.70001 10.6335 4.43931 9.14932 6.67089C7.66518 8.90246 6.87302 11.5261 6.87302 14.21C6.87302 17.809 8.29605 21.2605 10.8291 23.8054C13.3621 26.3503 16.7976 27.78 20.3798 27.78ZM20.3798 65.1144C20.3768 63.8465 20.6304 62.5912 21.1253 61.4248C21.6201 60.2584 22.3459 59.2053 23.2584 58.3294L38.481 43.8943C38.8292 43.5657 39.2766 43.4046 39.6649 43.1374C38.6717 40.6113 36.9459 38.4434 34.7113 36.9148C32.4768 35.3862 29.8365 34.5675 27.1332 34.565H13.6264C10.0442 34.565 6.60868 35.9947 4.07567 38.5395C1.54266 41.0844 0.119629 44.536 0.119629 48.135L0.119629 68.49C0.119629 70.2895 0.831145 72.0153 2.09765 73.2877C3.36416 74.5601 5.08191 75.275 6.87302 75.275V102.415C6.87302 104.214 7.58453 105.94 8.85104 107.213C10.1175 108.485 11.8353 109.2 13.6264 109.2H27.1332C28.9243 109.2 30.642 108.485 31.9085 107.213C33.1751 105.94 33.8866 104.214 33.8866 102.415V81.9773L23.2584 71.8994C22.3456 71.0238 21.6196 69.9707 21.1248 68.8043C20.6299 67.6378 20.3764 66.3824 20.3798 65.1144ZM101.42 27.78C104.092 27.78 106.703 26.9841 108.924 25.493C111.146 24.0019 112.877 21.8826 113.899 19.403C114.921 16.9234 115.189 14.1949 114.668 11.5626C114.147 8.93028 112.86 6.51233 110.971 4.61454C109.082 2.71674 106.676 1.42432 104.055 0.900719C101.435 0.377117 98.7197 0.645848 96.2516 1.67293C93.7836 2.70001 91.6741 4.43931 90.19 6.67089C88.7058 8.90246 87.9137 11.5261 87.9137 14.21C87.9137 17.809 89.3367 21.2605 91.8697 23.8054C94.4027 26.3503 97.8382 27.78 101.42 27.78ZM108.174 34.565H94.6671C91.9639 34.5674 89.3239 35.3857 87.0893 36.9139C84.8548 38.4421 83.1288 40.6096 82.1353 43.1353C82.5236 43.4046 82.9795 43.5593 83.3214 43.8965L98.5418 58.3273C99.4516 59.2052 100.175 60.2588 100.67 61.4247C101.164 62.5907 101.419 63.845 101.419 65.1123C101.419 66.3797 101.164 67.634 100.67 68.7999C100.175 69.9658 99.4516 71.0194 98.5418 71.8973L87.9137 81.9794V102.415C87.9137 104.214 88.6252 105.94 89.8917 107.213C91.1582 108.485 92.876 109.2 94.6671 109.2H108.174C109.965 109.2 111.683 108.485 112.949 107.213C114.216 105.94 114.927 104.214 114.927 102.415V75.275C116.718 75.275 118.436 74.5601 119.703 73.2877C120.969 72.0153 121.681 70.2895 121.681 68.49V48.135C121.681 44.536 120.258 41.0844 117.725 38.5395C115.192 35.9947 111.756 34.565 108.174 34.565ZM93.9073 63.2613L78.6869 48.8304C78.3276 48.4864 77.8756 48.2559 77.3871 48.1678C76.8986 48.0796 76.395 48.1376 75.939 48.3346C75.483 48.5316 75.0947 48.8589 74.8223 49.2757C74.5499 49.6926 74.4055 50.1807 74.4069 50.6793V58.3125H47.3933V50.6793C47.3952 50.1805 47.251 49.6921 46.9788 49.2749C46.7066 48.8577 46.3183 48.5302 45.8622 48.3329C45.4061 48.1357 44.9024 48.0775 44.4137 48.1655C43.9249 48.2536 43.4728 48.4841 43.1134 48.8283L27.8929 63.2613C27.4064 63.7538 27.1334 64.4195 27.1334 65.1134C27.1334 65.8073 27.4064 66.473 27.8929 66.9655L43.1134 81.3984C43.4729 81.7428 43.9253 81.9733 44.4142 82.0613C44.9031 82.1493 45.407 82.0909 45.8632 81.8934C46.3193 81.6959 46.7076 81.368 46.9797 80.9505C47.2517 80.533 47.3956 80.0443 47.3933 79.5453V71.8825H74.4069V79.5453C74.4046 80.0443 74.5485 80.533 74.8206 80.9505C75.0927 81.368 75.4809 81.6959 75.9371 81.8934C76.3932 82.0909 76.8971 82.1493 77.386 82.0613C77.875 81.9733 78.3273 81.7428 78.6869 81.3984L93.9073 66.9655C94.3938 66.473 94.6668 65.8073 94.6668 65.1134C94.6668 64.4195 94.3938 63.7538 93.9073 63.2613Z" fill="black" fill-opacity="0.5"/>
</g>
<defs>
<clipPath id="clip0">
<rect x="0.119629" y="0.639999" width="121.561" height="108.56" fill="white"/>
</clipPath>
</defs>
</svg>
