<svg width="119" height="95" viewBox="0 0 119 95" fill="none" xmlns="http://www.w3.org/2000/svg">
<path d="M91.8043 41.935C77.1452 41.935 65.2819 53.7402 65.2819 68.3275C65.2819 82.9149 77.1452 94.72 91.8043 94.72C106.463 94.72 118.327 82.9149 118.327 68.3275C118.327 53.7402 106.463 41.935 91.8043 41.935ZM103.592 69.4803C103.592 70.4591 102.787 71.26 101.804 71.26H90.6476C89.6641 71.26 88.8592 70.4591 88.8592 69.4803V55.4465C88.8592 54.4678 89.6641 53.6668 90.6476 53.6668H92.9628C93.9463 53.6668 94.7512 54.4678 94.7512 55.4465V65.395H101.804C102.787 65.395 103.592 66.1959 103.592 67.1747V69.4803ZM91.8043 36.07C92.7989 36.07 93.7787 36.1305 94.7512 36.2185V27.2725C94.7512 22.5805 90.6255 18.475 85.9104 18.475H71.1758V9.6775C71.1758 4.9855 67.0501 0.880005 62.335 0.880005H32.8657C28.1506 0.880005 24.0249 4.9855 24.0249 9.6775V18.475H9.29025C4.57516 18.475 0.449463 22.5805 0.449463 27.2725V41.935H73.2239C78.4915 38.2529 84.8919 36.07 91.8043 36.07ZM59.3881 18.475H35.8126V12.61H59.3881V18.475ZM60.6442 59.53H38.7596C37.1314 59.53 35.8126 58.2177 35.8126 56.5975V47.8H0.449463V74.1925C0.449463 78.8845 4.57516 82.99 9.29025 82.99H62.9667C60.6958 78.5839 59.3881 73.6097 59.3881 68.3275C59.3881 65.274 59.8448 62.3305 60.6442 59.53Z" fill="black" fill-opacity="0.5"/>
</svg>
