<svg width="140" height="140" viewBox="0 0 140 140" fill="none" xmlns="http://www.w3.org/2000/svg">
<path d="M112.228 84.6847L90.4511 74.3074L81.2427 69.9189C85.2642 67.3878 88.5307 63.4813 90.668 58.7761C92.4508 54.8535 93.373 50.5952 93.3727 46.2872C93.3727 43.7491 92.9694 41.3389 92.4076 39.0134C89.6682 27.7442 80.8589 19.4423 70.2835 19.4423C59.9083 19.4423 51.2325 27.4483 48.3234 38.3966C47.6517 40.9082 47.19 43.5199 47.19 46.2872C47.19 51.0924 48.3136 55.5726 50.2229 59.4693C52.4297 63.9898 55.7018 67.717 59.6844 70.1134L50.8653 74.2157L28.3824 84.6764C26.43 85.5905 25.1465 87.7909 25.1465 90.2484V114.928C25.1465 118.235 27.4535 120.916 30.3014 120.916H63.6935V102.021C63.6981 101.826 63.7553 101.636 63.859 101.47L63.8451 101.462L69.3142 91.9988L69.3281 92.0072C69.5228 91.6738 69.8691 91.4376 70.2835 91.4376C70.6979 91.4376 71.0441 91.6724 71.2388 92.0072L71.2444 92.003L71.2944 92.0905C71.3014 92.1044 71.3111 92.1155 71.3167 92.1294L76.7135 101.466L76.7066 101.47C76.8103 101.636 76.8675 101.827 76.872 102.022V120.918H110.264C113.112 120.918 115.42 118.237 115.42 114.929V90.2484C115.425 87.7993 114.162 85.6196 112.228 84.6847ZM76.7107 78.3569L76.7246 78.3652L71.2541 87.8285L71.2402 87.8201C71.1453 87.9906 71.0069 88.1329 70.8391 88.2327C70.6713 88.3325 70.4801 88.3862 70.2848 88.3883C70.0896 88.3862 69.8984 88.3325 69.7306 88.2327C69.5628 88.1329 69.4244 87.9906 69.3295 87.8201L69.3226 87.8243L69.2669 87.7284C69.2628 87.7187 69.2544 87.7104 69.2503 87.7006L63.8534 78.3611L63.859 78.3569C63.7552 78.1912 63.6981 78.0007 63.6935 77.8054C63.6935 77.1872 64.1955 76.6857 64.8143 76.6857H75.7526C76.3714 76.6857 76.8734 77.1872 76.8734 77.8054C76.8712 78.0007 76.8149 78.1916 76.7107 78.3569Z" fill="black" fill-opacity="0.5"/>
</svg>
