<svg width="130" height="79" viewBox="0 0 130 79" fill="none" xmlns="http://www.w3.org/2000/svg">
<path d="M88.1736 0.759995H70.869C69.2574 0.759995 67.7062 1.36374 66.5176 2.4505L46.7151 20.563C46.6949 20.5831 46.6748 20.6234 46.6546 20.6435C43.3105 23.783 43.371 28.7941 46.2316 31.9135C48.79 34.7109 54.1687 35.4555 57.533 32.4569C57.5531 32.4368 57.5934 32.4368 57.6135 32.4166L73.7094 17.6851C75.0189 16.4977 77.0737 16.5782 78.2622 17.8864C79.4709 19.1945 79.3702 21.2271 78.0608 22.4346L72.8029 27.2445L102.134 51.0322C102.718 51.5153 103.242 52.0385 103.726 52.5819V13.64L92.7264 2.65175C91.5378 1.44424 89.8859 0.759995 88.1736 0.759995ZM110.192 13.6802V58.7401C110.192 62.3023 113.073 65.1801 116.639 65.1801H129.531V13.6802H110.192ZM119.862 58.7401C118.089 58.7401 116.639 57.2911 116.639 55.5201C116.639 53.7491 118.089 52.3001 119.862 52.3001C121.635 52.3001 123.085 53.7491 123.085 55.5201C123.085 57.2911 121.635 58.7401 119.862 58.7401ZM0.603027 65.16H13.4959C17.0615 65.16 19.9423 62.2821 19.9423 58.72V13.6802H0.603027V65.16ZM10.2727 52.3001C12.0454 52.3001 13.4959 53.7491 13.4959 55.5201C13.4959 57.2911 12.0454 58.7401 10.2727 58.7401C8.49989 58.7401 7.04944 57.2911 7.04944 55.5201C7.04944 53.729 8.49989 52.3001 10.2727 52.3001ZM98.0849 56.0434L68.0084 31.6519L61.9649 37.1862C55.9818 42.6401 46.8158 42.1169 41.4773 36.3008C36.0583 30.384 36.4814 21.2271 42.3637 15.8336L58.8424 0.759995H41.9608C40.2485 0.759995 38.6167 1.44424 37.408 2.65175L26.3887 13.64V58.6999H30.0752L48.3065 75.1823C53.8263 79.6701 61.9447 78.8249 66.4371 73.3106L66.4774 73.2704L70.0833 76.3898C73.2864 79.006 78.0205 78.5029 80.6192 75.303L86.9447 67.5348L88.0326 68.4203C90.7924 70.6541 94.8617 70.2516 97.0978 67.4744L99.0116 65.1198C101.268 62.3425 100.845 58.2974 98.0849 56.0434Z" fill="black" fill-opacity="0.5"/>
</svg>
