<svg width="60" height="54" viewBox="0 0 60 54" fill="none" xmlns="http://www.w3.org/2000/svg">
<circle cx="2" cy="2" r="2" fill="#ECC92F"/>
<circle cx="10" cy="2" r="2" fill="#ECC92F"/>
<circle cx="2" cy="9" r="2" fill="#ECC92F"/>
<circle cx="10" cy="9" r="2" fill="#ECC92F"/>
<circle cx="2" cy="16" r="2" fill="#ECC92F"/>
<circle cx="10" cy="16" r="2" fill="#ECC92F"/>
<circle cx="2" cy="23" r="2" fill="#ECC92F"/>
<circle cx="10" cy="23" r="2" fill="#ECC92F"/>
<circle cx="18" cy="16" r="2" fill="#ECC92F"/>
<circle cx="26" cy="16" r="2" fill="#ECC92F"/>
<circle cx="18" cy="23" r="2" fill="#ECC92F"/>
<circle cx="26" cy="23" r="2" fill="#ECC92F"/>
<circle cx="18" cy="2" r="2" fill="#ECC92F"/>
<circle cx="26" cy="2" r="2" fill="#ECC92F"/>
<circle cx="18" cy="9" r="2" fill="#ECC92F"/>
<circle cx="26" cy="9" r="2" fill="#ECC92F"/>
<circle cx="2" cy="2" r="2" fill="#ECC92F"/>
<circle cx="10" cy="2" r="2" fill="#ECC92F"/>
<circle cx="2" cy="9" r="2" fill="#ECC92F"/>
<circle cx="10" cy="9" r="2" fill="#ECC92F"/>
<circle cx="2" cy="16" r="2" fill="#ECC92F"/>
<circle cx="10" cy="16" r="2" fill="#ECC92F"/>
<circle cx="2" cy="23" r="2" fill="#ECC92F"/>
<circle cx="10" cy="23" r="2" fill="#ECC92F"/>
<circle cx="18" cy="16" r="2" fill="#ECC92F"/>
<circle cx="26" cy="16" r="2" fill="#ECC92F"/>
<circle cx="18" cy="23" r="2" fill="#ECC92F"/>
<circle cx="26" cy="23" r="2" fill="#ECC92F"/>
<circle cx="18" cy="2" r="2" fill="#ECC92F"/>
<circle cx="26" cy="2" r="2" fill="#ECC92F"/>
<circle cx="18" cy="9" r="2" fill="#ECC92F"/>
<circle cx="26" cy="9" r="2" fill="#ECC92F"/>
<circle cx="34" cy="2" r="2" fill="#ECC92F"/>
<circle cx="42" cy="2" r="2" fill="#ECC92F"/>
<circle cx="34" cy="9" r="2" fill="#ECC92F"/>
<circle cx="42" cy="9" r="2" fill="#ECC92F"/>
<circle cx="34" cy="16" r="2" fill="#ECC92F"/>
<circle cx="42" cy="16" r="2" fill="#ECC92F"/>
<circle cx="34" cy="23" r="2" fill="#ECC92F"/>
<circle cx="42" cy="23" r="2" fill="#ECC92F"/>
<circle cx="50" cy="16" r="2" fill="#ECC92F"/>
<circle cx="58" cy="16" r="2" fill="#ECC92F"/>
<circle cx="50" cy="23" r="2" fill="#ECC92F"/>
<circle cx="58" cy="23" r="2" fill="#ECC92F"/>
<circle cx="50" cy="2" r="2" fill="#ECC92F"/>
<circle cx="58" cy="2" r="2" fill="#ECC92F"/>
<circle cx="50" cy="9" r="2" fill="#ECC92F"/>
<circle cx="58" cy="9" r="2" fill="#ECC92F"/>
<circle cx="34" cy="2" r="2" fill="#ECC92F"/>
<circle cx="42" cy="2" r="2" fill="#ECC92F"/>
<circle cx="34" cy="9" r="2" fill="#ECC92F"/>
<circle cx="42" cy="9" r="2" fill="#ECC92F"/>
<circle cx="34" cy="16" r="2" fill="#ECC92F"/>
<circle cx="42" cy="16" r="2" fill="#ECC92F"/>
<circle cx="34" cy="23" r="2" fill="#ECC92F"/>
<circle cx="42" cy="23" r="2" fill="#ECC92F"/>
<circle cx="50" cy="16" r="2" fill="#ECC92F"/>
<circle cx="58" cy="16" r="2" fill="#ECC92F"/>
<circle cx="50" cy="23" r="2" fill="#ECC92F"/>
<circle cx="58" cy="23" r="2" fill="#ECC92F"/>
<circle cx="50" cy="2" r="2" fill="#ECC92F"/>
<circle cx="58" cy="2" r="2" fill="#ECC92F"/>
<circle cx="50" cy="9" r="2" fill="#ECC92F"/>
<circle cx="58" cy="9" r="2" fill="#ECC92F"/>
<circle cx="34" cy="31" r="2" fill="#ECC92F"/>
<circle cx="42" cy="31" r="2" fill="#ECC92F"/>
<circle cx="34" cy="38" r="2" fill="#ECC92F"/>
<circle cx="42" cy="38" r="2" fill="#ECC92F"/>
<circle cx="34" cy="45" r="2" fill="#ECC92F"/>
<circle cx="42" cy="45" r="2" fill="#ECC92F"/>
<circle cx="34" cy="52" r="2" fill="#ECC92F"/>
<circle cx="42" cy="52" r="2" fill="#ECC92F"/>
<circle cx="50" cy="45" r="2" fill="#ECC92F"/>
<circle cx="58" cy="45" r="2" fill="#ECC92F"/>
<circle cx="50" cy="52" r="2" fill="#ECC92F"/>
<circle cx="58" cy="52" r="2" fill="#ECC92F"/>
<circle cx="50" cy="31" r="2" fill="#ECC92F"/>
<circle cx="58" cy="31" r="2" fill="#ECC92F"/>
<circle cx="50" cy="38" r="2" fill="#ECC92F"/>
<circle cx="58" cy="38" r="2" fill="#ECC92F"/>
<circle cx="34" cy="31" r="2" fill="#ECC92F"/>
<circle cx="42" cy="31" r="2" fill="#ECC92F"/>
<circle cx="34" cy="38" r="2" fill="#ECC92F"/>
<circle cx="42" cy="38" r="2" fill="#ECC92F"/>
<circle cx="34" cy="45" r="2" fill="#ECC92F"/>
<circle cx="42" cy="45" r="2" fill="#ECC92F"/>
<circle cx="34" cy="52" r="2" fill="#ECC92F"/>
<circle cx="42" cy="52" r="2" fill="#ECC92F"/>
<circle cx="50" cy="45" r="2" fill="#ECC92F"/>
<circle cx="58" cy="45" r="2" fill="#ECC92F"/>
<circle cx="50" cy="52" r="2" fill="#ECC92F"/>
<circle cx="58" cy="52" r="2" fill="#ECC92F"/>
<circle cx="50" cy="31" r="2" fill="#ECC92F"/>
<circle cx="58" cy="31" r="2" fill="#ECC92F"/>
<circle cx="50" cy="38" r="2" fill="#ECC92F"/>
<circle cx="58" cy="38" r="2" fill="#ECC92F"/>
<circle cx="2" cy="30" r="2" fill="#ECC92F"/>
<circle cx="10" cy="30" r="2" fill="#ECC92F"/>
<circle cx="2" cy="37" r="2" fill="#ECC92F"/>
<circle cx="10" cy="37" r="2" fill="#ECC92F"/>
<circle cx="2" cy="44" r="2" fill="#ECC92F"/>
<circle cx="10" cy="44" r="2" fill="#ECC92F"/>
<circle cx="2" cy="51" r="2" fill="#ECC92F"/>
<circle cx="10" cy="51" r="2" fill="#ECC92F"/>
<circle cx="18" cy="44" r="2" fill="#ECC92F"/>
<circle cx="26" cy="44" r="2" fill="#ECC92F"/>
<circle cx="18" cy="51" r="2" fill="#ECC92F"/>
<circle cx="26" cy="51" r="2" fill="#ECC92F"/>
<circle cx="18" cy="30" r="2" fill="#ECC92F"/>
<circle cx="26" cy="30" r="2" fill="#ECC92F"/>
<circle cx="18" cy="37" r="2" fill="#ECC92F"/>
<circle cx="26" cy="37" r="2" fill="#ECC92F"/>
<circle cx="2" cy="30" r="2" fill="#ECC92F"/>
<circle cx="10" cy="30" r="2" fill="#ECC92F"/>
<circle cx="2" cy="37" r="2" fill="#ECC92F"/>
<circle cx="10" cy="37" r="2" fill="#ECC92F"/>
<circle cx="2" cy="44" r="2" fill="#ECC92F"/>
<circle cx="10" cy="44" r="2" fill="#ECC92F"/>
<circle cx="2" cy="51" r="2" fill="#ECC92F"/>
<circle cx="10" cy="51" r="2" fill="#ECC92F"/>
<circle cx="18" cy="44" r="2" fill="#ECC92F"/>
<circle cx="26" cy="44" r="2" fill="#ECC92F"/>
<circle cx="18" cy="51" r="2" fill="#ECC92F"/>
<circle cx="26" cy="51" r="2" fill="#ECC92F"/>
<circle cx="18" cy="30" r="2" fill="#ECC92F"/>
<circle cx="26" cy="30" r="2" fill="#ECC92F"/>
<circle cx="18" cy="37" r="2" fill="#ECC92F"/>
<circle cx="26" cy="37" r="2" fill="#ECC92F"/>
</svg>
