<svg width="178" height="161" viewBox="0 0 178 161" fill="none" xmlns="http://www.w3.org/2000/svg">
<ellipse cx="4.2381" cy="4.23684" rx="4.2381" ry="4.23684" fill="#ECC92F"/>
<ellipse cx="28.4559" cy="4.23684" rx="4.2381" ry="4.23684" fill="#ECC92F"/>
<ellipse cx="4.2381" cy="26.0264" rx="4.2381" ry="4.23684" fill="#ECC92F"/>
<ellipse cx="28.4559" cy="26.0264" rx="4.2381" ry="4.23684" fill="#ECC92F"/>
<ellipse cx="4.2381" cy="47.8157" rx="4.2381" ry="4.23684" fill="#ECC92F"/>
<ellipse cx="28.4559" cy="47.8157" rx="4.2381" ry="4.23684" fill="#ECC92F"/>
<ellipse cx="4.2381" cy="69.6053" rx="4.2381" ry="4.23684" fill="#ECC92F"/>
<ellipse cx="28.4559" cy="69.6053" rx="4.2381" ry="4.23684" fill="#ECC92F"/>
<ellipse cx="4.2381" cy="91.3948" rx="4.2381" ry="4.23684" fill="#ECC92F"/>
<ellipse cx="28.4559" cy="91.3948" rx="4.2381" ry="4.23684" fill="#ECC92F"/>
<ellipse cx="4.2381" cy="113.184" rx="4.2381" ry="4.23685" fill="#ECC92F"/>
<ellipse cx="28.4559" cy="113.184" rx="4.2381" ry="4.23685" fill="#ECC92F"/>
<ellipse cx="4.2381" cy="134.974" rx="4.2381" ry="4.23684" fill="#ECC92F"/>
<ellipse cx="28.4559" cy="134.974" rx="4.2381" ry="4.23684" fill="#ECC92F"/>
<ellipse cx="4.2381" cy="156.763" rx="4.2381" ry="4.23684" fill="#ECC92F"/>
<ellipse cx="28.4559" cy="156.763" rx="4.2381" ry="4.23684" fill="#ECC92F"/>
<ellipse cx="4.2381" cy="4.23684" rx="4.2381" ry="4.23684" fill="#ECC92F"/>
<ellipse cx="28.4559" cy="4.23684" rx="4.2381" ry="4.23684" fill="#ECC92F"/>
<ellipse cx="4.2381" cy="26.0264" rx="4.2381" ry="4.23684" fill="#ECC92F"/>
<ellipse cx="28.4559" cy="26.0264" rx="4.2381" ry="4.23684" fill="#ECC92F"/>
<ellipse cx="4.2381" cy="47.8157" rx="4.2381" ry="4.23684" fill="#ECC92F"/>
<ellipse cx="28.4559" cy="47.8157" rx="4.2381" ry="4.23684" fill="#ECC92F"/>
<ellipse cx="4.2381" cy="69.6053" rx="4.2381" ry="4.23684" fill="#ECC92F"/>
<ellipse cx="28.4559" cy="69.6053" rx="4.2381" ry="4.23684" fill="#ECC92F"/>
<ellipse cx="4.2381" cy="91.3948" rx="4.2381" ry="4.23684" fill="#ECC92F"/>
<ellipse cx="28.4559" cy="91.3948" rx="4.2381" ry="4.23684" fill="#ECC92F"/>
<ellipse cx="28.4559" cy="113.184" rx="4.2381" ry="4.23685" fill="#ECC92F"/>
<ellipse cx="4.2381" cy="134.974" rx="4.2381" ry="4.23684" fill="#ECC92F"/>
<ellipse cx="28.4559" cy="134.974" rx="4.2381" ry="4.23684" fill="#ECC92F"/>
<ellipse cx="4.2381" cy="156.763" rx="4.2381" ry="4.23684" fill="#ECC92F"/>
<ellipse cx="28.4559" cy="156.763" rx="4.2381" ry="4.23684" fill="#ECC92F"/>
<ellipse cx="52.6736" cy="4.23684" rx="4.2381" ry="4.23684" fill="#ECC92F"/>
<ellipse cx="76.8909" cy="4.23684" rx="4.2381" ry="4.23684" fill="#ECC92F"/>
<ellipse cx="52.6736" cy="26.0264" rx="4.2381" ry="4.23684" fill="#ECC92F"/>
<ellipse cx="76.8909" cy="26.0264" rx="4.2381" ry="4.23684" fill="#ECC92F"/>
<ellipse cx="52.6736" cy="47.8157" rx="4.2381" ry="4.23684" fill="#ECC92F"/>
<ellipse cx="76.8909" cy="47.8157" rx="4.2381" ry="4.23684" fill="#ECC92F"/>
<ellipse cx="52.6736" cy="69.6053" rx="4.2381" ry="4.23684" fill="#ECC92F"/>
<ellipse cx="76.8909" cy="69.6053" rx="4.2381" ry="4.23684" fill="#ECC92F"/>
<ellipse cx="52.6736" cy="91.3948" rx="4.2381" ry="4.23684" fill="#ECC92F"/>
<ellipse cx="76.8909" cy="91.3948" rx="4.2381" ry="4.23684" fill="#ECC92F"/>
<ellipse cx="52.6736" cy="113.184" rx="4.2381" ry="4.23685" fill="#ECC92F"/>
<ellipse cx="76.8909" cy="113.184" rx="4.2381" ry="4.23685" fill="#ECC92F"/>
<ellipse cx="52.6736" cy="134.974" rx="4.2381" ry="4.23684" fill="#ECC92F"/>
<ellipse cx="76.8909" cy="134.974" rx="4.2381" ry="4.23684" fill="#ECC92F"/>
<ellipse cx="52.6736" cy="156.763" rx="4.2381" ry="4.23684" fill="#ECC92F"/>
<ellipse cx="76.8909" cy="156.763" rx="4.2381" ry="4.23684" fill="#ECC92F"/>
<ellipse cx="52.6736" cy="4.23684" rx="4.2381" ry="4.23684" fill="#ECC92F"/>
<ellipse cx="76.8909" cy="4.23684" rx="4.2381" ry="4.23684" fill="#ECC92F"/>
<ellipse cx="52.6736" cy="26.0264" rx="4.2381" ry="4.23684" fill="#ECC92F"/>
<ellipse cx="76.8909" cy="26.0264" rx="4.2381" ry="4.23684" fill="#ECC92F"/>
<ellipse cx="52.6736" cy="47.8157" rx="4.2381" ry="4.23684" fill="#ECC92F"/>
<ellipse cx="76.8909" cy="47.8157" rx="4.2381" ry="4.23684" fill="#ECC92F"/>
<ellipse cx="52.6736" cy="69.6053" rx="4.2381" ry="4.23684" fill="#ECC92F"/>
<ellipse cx="76.8909" cy="69.6053" rx="4.2381" ry="4.23684" fill="#ECC92F"/>
<ellipse cx="52.6736" cy="91.3948" rx="4.2381" ry="4.23684" fill="#ECC92F"/>
<ellipse cx="76.8909" cy="91.3948" rx="4.2381" ry="4.23684" fill="#ECC92F"/>
<ellipse cx="76.8909" cy="113.184" rx="4.2381" ry="4.23685" fill="#ECC92F"/>
<ellipse cx="52.6736" cy="134.974" rx="4.2381" ry="4.23684" fill="#ECC92F"/>
<ellipse cx="76.8909" cy="134.974" rx="4.2381" ry="4.23684" fill="#ECC92F"/>
<ellipse cx="52.6736" cy="156.763" rx="4.2381" ry="4.23684" fill="#ECC92F"/>
<ellipse cx="76.8909" cy="156.763" rx="4.2381" ry="4.23684" fill="#ECC92F"/>
<ellipse cx="101.109" cy="4.23684" rx="4.23809" ry="4.23684" fill="#ECC92F"/>
<ellipse cx="125.326" cy="4.23684" rx="4.23809" ry="4.23684" fill="#ECC92F"/>
<ellipse cx="101.109" cy="26.0264" rx="4.23809" ry="4.23684" fill="#ECC92F"/>
<ellipse cx="125.326" cy="26.0264" rx="4.23809" ry="4.23684" fill="#ECC92F"/>
<ellipse cx="101.109" cy="47.8157" rx="4.23809" ry="4.23684" fill="#ECC92F"/>
<ellipse cx="125.326" cy="47.8157" rx="4.23809" ry="4.23684" fill="#ECC92F"/>
<ellipse cx="101.109" cy="69.6053" rx="4.23809" ry="4.23684" fill="#ECC92F"/>
<ellipse cx="125.326" cy="69.6053" rx="4.23809" ry="4.23684" fill="#ECC92F"/>
<ellipse cx="101.109" cy="91.3948" rx="4.23809" ry="4.23684" fill="#ECC92F"/>
<ellipse cx="125.326" cy="91.3948" rx="4.23809" ry="4.23684" fill="#ECC92F"/>
<ellipse cx="101.109" cy="113.184" rx="4.23809" ry="4.23685" fill="#ECC92F"/>
<ellipse cx="125.326" cy="113.184" rx="4.23809" ry="4.23685" fill="#ECC92F"/>
<ellipse cx="101.109" cy="134.974" rx="4.23809" ry="4.23684" fill="#ECC92F"/>
<ellipse cx="125.326" cy="134.974" rx="4.23809" ry="4.23684" fill="#ECC92F"/>
<ellipse cx="101.109" cy="156.763" rx="4.23809" ry="4.23684" fill="#ECC92F"/>
<ellipse cx="125.326" cy="156.763" rx="4.23809" ry="4.23684" fill="#ECC92F"/>
<ellipse cx="101.109" cy="4.23684" rx="4.23809" ry="4.23684" fill="#ECC92F"/>
<ellipse cx="125.326" cy="4.23684" rx="4.23809" ry="4.23684" fill="#ECC92F"/>
<ellipse cx="101.109" cy="26.0264" rx="4.23809" ry="4.23684" fill="#ECC92F"/>
<ellipse cx="125.326" cy="26.0264" rx="4.23809" ry="4.23684" fill="#ECC92F"/>
<ellipse cx="101.109" cy="47.8157" rx="4.23809" ry="4.23684" fill="#ECC92F"/>
<ellipse cx="125.326" cy="47.8157" rx="4.23809" ry="4.23684" fill="#ECC92F"/>
<ellipse cx="101.109" cy="69.6053" rx="4.23809" ry="4.23684" fill="#ECC92F"/>
<ellipse cx="125.326" cy="69.6053" rx="4.23809" ry="4.23684" fill="#ECC92F"/>
<ellipse cx="101.109" cy="91.3948" rx="4.23809" ry="4.23684" fill="#ECC92F"/>
<ellipse cx="125.326" cy="91.3948" rx="4.23809" ry="4.23684" fill="#ECC92F"/>
<ellipse cx="125.326" cy="113.184" rx="4.23809" ry="4.23685" fill="#ECC92F"/>
<ellipse cx="101.109" cy="134.974" rx="4.23809" ry="4.23684" fill="#ECC92F"/>
<ellipse cx="125.326" cy="134.974" rx="4.23809" ry="4.23684" fill="#ECC92F"/>
<ellipse cx="101.109" cy="156.763" rx="4.23809" ry="4.23684" fill="#ECC92F"/>
<ellipse cx="125.326" cy="156.763" rx="4.23809" ry="4.23684" fill="#ECC92F"/>
<ellipse cx="149.544" cy="4.23684" rx="4.2381" ry="4.23684" fill="#ECC92F"/>
<ellipse cx="173.762" cy="4.23684" rx="4.2381" ry="4.23684" fill="#ECC92F"/>
<ellipse cx="149.544" cy="26.0264" rx="4.2381" ry="4.23684" fill="#ECC92F"/>
<ellipse cx="173.762" cy="26.0264" rx="4.2381" ry="4.23684" fill="#ECC92F"/>
<ellipse cx="149.544" cy="47.8157" rx="4.2381" ry="4.23684" fill="#ECC92F"/>
<ellipse cx="173.762" cy="47.8157" rx="4.2381" ry="4.23684" fill="#ECC92F"/>
<ellipse cx="149.544" cy="69.6053" rx="4.2381" ry="4.23684" fill="#ECC92F"/>
<ellipse cx="173.762" cy="69.6053" rx="4.2381" ry="4.23684" fill="#ECC92F"/>
<ellipse cx="149.544" cy="91.3948" rx="4.2381" ry="4.23684" fill="#ECC92F"/>
<ellipse cx="173.762" cy="91.3948" rx="4.2381" ry="4.23684" fill="#ECC92F"/>
<ellipse cx="149.544" cy="113.184" rx="4.2381" ry="4.23685" fill="#ECC92F"/>
<ellipse cx="173.762" cy="113.184" rx="4.2381" ry="4.23685" fill="#ECC92F"/>
<ellipse cx="149.544" cy="134.974" rx="4.2381" ry="4.23684" fill="#ECC92F"/>
<ellipse cx="173.762" cy="134.974" rx="4.2381" ry="4.23684" fill="#ECC92F"/>
<ellipse cx="149.544" cy="156.763" rx="4.2381" ry="4.23684" fill="#ECC92F"/>
<ellipse cx="173.762" cy="156.763" rx="4.2381" ry="4.23684" fill="#ECC92F"/>
<ellipse cx="149.544" cy="4.23684" rx="4.2381" ry="4.23684" fill="#ECC92F"/>
<ellipse cx="173.762" cy="4.23684" rx="4.2381" ry="4.23684" fill="#ECC92F"/>
<ellipse cx="149.544" cy="26.0264" rx="4.2381" ry="4.23684" fill="#ECC92F"/>
<ellipse cx="173.762" cy="26.0264" rx="4.2381" ry="4.23684" fill="#ECC92F"/>
<ellipse cx="149.544" cy="47.8157" rx="4.2381" ry="4.23684" fill="#ECC92F"/>
<ellipse cx="173.762" cy="47.8157" rx="4.2381" ry="4.23684" fill="#ECC92F"/>
<ellipse cx="149.544" cy="69.6053" rx="4.2381" ry="4.23684" fill="#ECC92F"/>
<ellipse cx="173.762" cy="69.6053" rx="4.2381" ry="4.23684" fill="#ECC92F"/>
<ellipse cx="149.544" cy="91.3948" rx="4.2381" ry="4.23684" fill="#ECC92F"/>
<ellipse cx="173.762" cy="91.3948" rx="4.2381" ry="4.23684" fill="#ECC92F"/>
<ellipse cx="173.762" cy="113.184" rx="4.2381" ry="4.23685" fill="#ECC92F"/>
<ellipse cx="149.544" cy="134.974" rx="4.2381" ry="4.23684" fill="#ECC92F"/>
<ellipse cx="173.762" cy="134.974" rx="4.2381" ry="4.23684" fill="#ECC92F"/>
<ellipse cx="149.544" cy="156.763" rx="4.2381" ry="4.23684" fill="#ECC92F"/>
<ellipse cx="173.762" cy="156.763" rx="4.2381" ry="4.23684" fill="#ECC92F"/>
</svg>
