<svg width="18" height="18" viewBox="0 0 18 18" fill="none" xmlns="http://www.w3.org/2000/svg">
<path d="M4.965 8.09243C6.045 10.2149 7.785 11.9474 9.9075 13.0349L11.5575 11.3849C11.76 11.1824 12.06 11.1149 12.3225 11.2049C13.1625 11.4824 14.07 11.6324 15 11.6324C15.4125 11.6324 15.75 11.9699 15.75 12.3824V14.9999C15.75 15.4124 15.4125 15.7499 15 15.7499C7.9575 15.7499 2.25 10.0424 2.25 2.99993C2.25 2.58743 2.5875 2.24993 3 2.24993H5.625C6.0375 2.24993 6.375 2.58743 6.375 2.99993C6.375 3.93743 6.525 4.83743 6.8025 5.67743C6.885 5.93993 6.825 6.23243 6.615 6.44243L4.965 8.09243ZM15.12 2.76743L14.5875 2.24243L9.75 6.96743V3.74993H9V8.24993H13.5V7.49993H10.3875L15.12 2.76743Z" fill="black" fill-opacity="0.5"/>
</svg>
